<svg width="29" height="31" viewBox="0 0 29 31" fill="none" xmlns="http://www.w3.org/2000/svg">
<g filter="url(#filter0_d_2125_922)">
<path d="M9.5 2C9.5 1.44772 9.05228 1 8.5 1C7.94772 1 7.5 1.44772 7.5 2V2.44885C7.88032 2.32821 8.28554 2.24208 8.71533 2.17961C8.96328 2.14357 9.22472 2.11476 9.5 2.09173V2Z" fill="#8F8881"/>
<path d="M21.5 2.44885C21.1197 2.32821 20.7145 2.24208 20.2847 2.17961C20.0367 2.14357 19.7753 2.11476 19.5 2.09173V2C19.5 1.44772 19.9477 1 20.5 1C21.0523 1 21.5 1.44772 21.5 2V2.44885Z" fill="#8F8881"/>
<path fill-rule="evenodd" clip-rule="evenodd" d="M15.5288 2H13.4712C11.5229 1.99997 9.95141 1.99994 8.71533 2.17961C7.42535 2.3671 6.3568 2.76781 5.51802 3.6746C4.68949 4.57031 4.33279 5.69272 4.16416 7.04866C3.99997 8.36894 3.99998 10.0541 4 12.1739V12.8261C3.99998 14.9459 3.99997 16.6311 4.16416 17.9513C4.33279 19.3073 4.68949 20.4297 5.51802 21.3254C6.3568 22.2322 7.42535 22.6329 8.71533 22.8204C9.95142 23.0001 11.5229 23 13.4712 23H15.5288C17.4771 23 19.0486 23.0001 20.2847 22.8204C21.5747 22.6329 22.6432 22.2322 23.482 21.3254C24.3105 20.4297 24.6672 19.3073 24.8358 17.9513C25 16.6311 25 14.9459 25 12.8261V12.1739C25 10.0541 25 8.36895 24.8358 7.04866C24.6672 5.69272 24.3105 4.57031 23.482 3.6746C22.6432 2.76781 21.5747 2.3671 20.2847 2.17961C19.0486 1.99994 17.4771 1.99997 15.5288 2ZM6.99783 9C6.53921 9 6.3099 9 6.16385 9.14417C6.01781 9.28833 6.01487 9.51472 6.009 9.96751C6.00027 10.6407 6 11.3942 6 12.2432V12.7568C6 14.9616 6.00182 16.5221 6.14887 17.7045C6.29327 18.8656 6.56263 19.5094 6.98622 19.9673C7.39956 20.4142 7.9647 20.6903 9.003 20.8412C10.0786 20.9975 11.5043 21 13.55 21H15.45C17.4957 21 18.9214 20.9975 19.997 20.8412C21.0353 20.6903 21.6004 20.4142 22.0138 19.9673C22.4374 19.5094 22.7067 18.8656 22.8511 17.7045C22.9982 16.5221 23 14.9616 23 12.7568V12.2432C23 11.3942 22.9997 10.6407 22.991 9.96751C22.9851 9.51472 22.9822 9.28833 22.8362 9.14417C22.6901 9 22.4608 9 22.0022 9H6.99783Z" fill="#8F8881"/>
<path fill-rule="evenodd" clip-rule="evenodd" d="M9.25 13C9.25 12.3096 9.80964 11.75 10.5 11.75H10.509C11.1993 11.75 11.759 12.3096 11.759 13C11.759 13.6904 11.1993 14.25 10.509 14.25H10.5C9.80964 14.25 9.25 13.6904 9.25 13ZM13.2455 13C13.2455 12.3096 13.8052 11.75 14.4955 11.75H14.5045C15.1948 11.75 15.7545 12.3096 15.7545 13C15.7545 13.6904 15.1948 14.25 14.5045 14.25H14.4955C13.8052 14.25 13.2455 13.6904 13.2455 13ZM17.241 13C17.241 12.3096 17.8007 11.75 18.491 11.75H18.5C19.1904 11.75 19.75 12.3096 19.75 13C19.75 13.6904 19.1904 14.25 18.5 14.25H18.491C17.8007 14.25 17.241 13.6904 17.241 13ZM9.25 17C9.25 16.3096 9.80964 15.75 10.5 15.75H10.509C11.1993 15.75 11.759 16.3096 11.759 17C11.759 17.6904 11.1993 18.25 10.509 18.25H10.5C9.80964 18.25 9.25 17.6904 9.25 17ZM13.2455 17C13.2455 16.3096 13.8052 15.75 14.4955 15.75H14.5045C15.1948 15.75 15.7545 16.3096 15.7545 17C15.7545 17.6904 15.1948 18.25 14.5045 18.25H14.4955C13.8052 18.25 13.2455 17.6904 13.2455 17Z" fill="#8F8881"/>
</g>
<defs>
<filter id="filter0_d_2125_922" x="-1.5" y="0" width="32" height="32" filterUnits="userSpaceOnUse" color-interpolation-filters="sRGB">
<feFlood flood-opacity="0" result="BackgroundImageFix"/>
<feColorMatrix in="SourceAlpha" type="matrix" values="0 0 0 0 0 0 0 0 0 0 0 0 0 0 0 0 0 0 127 0" result="hardAlpha"/>
<feOffset dy="4"/>
<feGaussianBlur stdDeviation="2"/>
<feComposite in2="hardAlpha" operator="out"/>
<feColorMatrix type="matrix" values="0 0 0 0 0 0 0 0 0 0 0 0 0 0 0 0 0 0 0.25 0"/>
<feBlend mode="normal" in2="BackgroundImageFix" result="effect1_dropShadow_2125_922"/>
<feBlend mode="normal" in="SourceGraphic" in2="effect1_dropShadow_2125_922" result="shape"/>
</filter>
</defs>
</svg>
