<svg width="18" height="17" viewBox="0 0 18 17" fill="none" xmlns="http://www.w3.org/2000/svg">
<g filter="url(#filter0_d_2209_222)">
<path fill-rule="evenodd" clip-rule="evenodd" d="M13.8775 0.520376C14.1425 1.00493 13.9645 1.61257 13.48 1.87756C12.1086 2.62752 10.8208 4.19753 9.83744 5.70323C9.35808 6.43725 8.97349 7.12066 8.70899 7.62036C8.577 7.86972 8.47558 8.07205 8.40788 8.2105C8.37404 8.27969 8.34867 8.33283 8.33216 8.3678L8.3141 8.40633L8.31015 8.41485L8.30965 8.41595C8.15515 8.75365 7.82609 8.9782 7.45528 8.99867C7.08436 9.01914 6.73266 8.83231 6.54197 8.5135C6.23126 7.99403 5.73753 7.51982 5.27997 7.15807C5.05765 6.9823 4.85753 6.84372 4.71472 6.75017C4.64359 6.70358 4.58744 6.66865 4.55079 6.64636C4.53248 6.63522 4.5191 6.62728 4.51123 6.62265L4.50443 6.61866C4.02494 6.34496 3.85797 5.73442 4.13151 5.25478C4.40512 4.77503 5.01583 4.60792 5.49558 4.88153L5.00017 5.75019C5.49558 4.88153 5.49539 4.88142 5.49558 4.88153L5.49729 4.8825L5.49959 4.88382L5.50594 4.88749L5.52544 4.89888C5.5414 4.90827 5.56318 4.92123 5.59018 4.93766C5.64416 4.97049 5.71925 5.0173 5.81063 5.07716C5.99281 5.1965 6.2427 5.36964 6.52037 5.58918C6.73257 5.75696 6.96985 5.95869 7.20939 6.19111C7.46624 5.72973 7.78717 5.18499 8.1629 4.60965C9.17959 3.05285 10.6917 1.12286 12.5204 0.122817C13.0049 -0.142176 13.6125 0.0358171 13.8775 0.520376Z" fill="#8F8881"/>
</g>
<defs>
<filter id="filter0_d_2209_222" x="0" y="0" width="18.0004" height="17.0002" filterUnits="userSpaceOnUse" color-interpolation-filters="sRGB">
<feFlood flood-opacity="0" result="BackgroundImageFix"/>
<feColorMatrix in="SourceAlpha" type="matrix" values="0 0 0 0 0 0 0 0 0 0 0 0 0 0 0 0 0 0 127 0" result="hardAlpha"/>
<feOffset dy="4"/>
<feGaussianBlur stdDeviation="2"/>
<feComposite in2="hardAlpha" operator="out"/>
<feColorMatrix type="matrix" values="0 0 0 0 0 0 0 0 0 0 0 0 0 0 0 0 0 0 0.25 0"/>
<feBlend mode="normal" in2="BackgroundImageFix" result="effect1_dropShadow_2209_222"/>
<feBlend mode="normal" in="SourceGraphic" in2="effect1_dropShadow_2209_222" result="shape"/>
</filter>
</defs>
</svg>
